Coordinates
version=1
nRows=24
nColumns=34
inDegrees=no

Units are S.I. units (second, meters, Newtons, ...)
If the header above contains a line with 'inDegrees', this indicates whether rotational values are in degrees (yes) or radians (no).

endheader
time	pelvis_tilt	pelvis_list	pelvis_rotation	pelvis_tx	pelvis_ty	pelvis_tz	hip_flexion_r	hip_adduction_r	hip_rotation_r	knee_angle_r	ankle_angle_r	subtalar_angle_r	mtp_angle_r	hip_flexion_l	hip_adduction_l	hip_rotation_l	knee_angle_l	ankle_angle_l	subtalar_angle_l	mtp_angle_l	lumbar_extension	lumbar_bending	lumbar_rotation	arm_flex_r	arm_add_r	arm_rot_r	elbow_flex_r	pro_sup_r	arm_flex_l	arm_add_l	arm_rot_l	elbow_flex_l	pro_sup_l
1.28	-0.00207346	0.0198075	-0.13067	1.17862	1.16465	-0.2052	0.309101	0.0221881	-0.0428245	0.245795	0.0763781	-0.0363126	-0.0187122	-0.187548	0.0597409	-0.282237	0.0156859	0.0305588	0.238722	-0.0547834	-0.454458	-0.412485	-0.0963345	-0.323461	-0.173818	-0.0949441	0.800159	2.03804	0.136568	-0.360764	-0.122317	0.89644	1.99445
1.29	-0.00476627	0.0184637	-0.13008	1.18734	1.16335	-0.205216	0.307166	0.0299646	-0.050132	0.203662	0.0763919	-0.00975441	-0.0187329	-0.193661	0.0586224	-0.282975	0.0162042	0.0339938	0.24379	-0.0547763	-0.452973	-0.406172	-0.0931188	-0.321176	-0.173124	-0.0983991	0.801123	2.03686	0.135163	-0.359077	-0.116144	0.893007	1.99617
1.3	-0.00726814	0.0172639	-0.129454	1.19622	1.16197	-0.205259	0.305009	0.0375869	-0.0566427	0.16383	0.0765325	0.0161592	-0.0187535	-0.200055	0.0577337	-0.28366	0.0167398	0.0374162	0.248878	-0.0547692	-0.451404	-0.399666	-0.0894642	-0.319123	-0.172446	-0.102231	0.802088	2.03572	0.133599	-0.357121	-0.109922	0.888699	1.99819
1.31	-0.00948544	0.0162645	-0.128889	1.20525	1.16053	-0.205337	0.302869	0.0448798	-0.0622173	0.127383	0.0769519	0.0408773	-0.0187741	-0.206845	0.0572037	-0.284352	0.0172503	0.040769	0.253907	-0.0547622	-0.449788	-0.393022	-0.0853502	-0.317314	-0.171849	-0.106417	0.803119	2.03465	0.131805	-0.354857	-0.103717	0.883588	2.00047
1.32	-0.0113276	0.0155046	-0.128452	1.21445	1.15904	-0.205456	0.300944	0.0516742	-0.066774	0.0953457	0.0778056	0.0639072	-0.0187947	-0.21416	0.0571326	-0.285079	0.0176759	0.0439951	0.258817	-0.0547552	-0.448172	-0.386269	-0.0807849	-0.315754	-0.171403	-0.110924	0.804282	2.03372	0.129709	-0.352246	-0.0975984	0.877762	2.00295
1.33	-0.0127297	0.0149982	-0.128153	1.22384	1.15751	-0.205624	0.299358	0.0578215	-0.0702804	0.0685515	0.079222	0.0848224	-0.0188153	-0.222115	0.057568	-0.285822	0.0179465	0.0470474	0.263575	-0.0547484	-0.446606	-0.379393	-0.0758287	-0.314439	-0.171173	-0.115704	0.805634	2.03299	0.127244	-0.34926	-0.0916434	0.871317	2.00556
1.34	-0.0136732	0.0147311	-0.12791	1.23342	1.15596	-0.205853	0.29815	0.0632043	-0.0727441	0.0475216	0.0812512	0.103249	-0.0188358	-0.230781	0.0584869	-0.286489	0.0179947	0.049898	0.26818	-0.0547416	-0.445129	-0.372325	-0.0706145	-0.313365	-0.171214	-0.120701	0.807216	2.03251	0.124351	-0.345883	-0.0859216	0.864353	2.00822
1.35	-0.0141962	0.0146603	-0.127537	1.24323	1.15439	-0.206156	0.297263	0.0677442	-0.0742025	0.0323777	0.0838003	0.118836	-0.0188564	-0.240157	0.0597851	-0.286911	0.0177772	0.0525419	0.272667	-0.0547348	-0.443754	-0.364939	-0.0653543	-0.312522	-0.17156	-0.125854	0.809035	2.03234	0.120985	-0.342119	-0.0804883	0.85696	2.01087
1.36	-0.0143858	0.0147179	-0.126752	1.25327	1.1528	-0.20655	0.296563	0.0714074	-0.0747189	0.0228399	0.0865781	0.131222	-0.0188769	-0.250154	0.0612756	-0.286864	0.0173032	0.0549946	0.277114	-0.0547281	-0.442468	-0.35706	-0.0603266	-0.3119	-0.172223	-0.131103	0.811057	2.03253	0.117112	-0.337994	-0.075376	0.849212	2.01348
1.37	-0.0143496	0.0148135	-0.125226	1.26357	1.1512	-0.207054	0.295885	0.0742057	-0.0743924	0.0183604	0.0890808	0.140023	-0.0188975	-0.26061	0.0627012	-0.286096	0.0166675	0.0572789	0.281636	-0.0547215	-0.441237	-0.348485	-0.0558382	-0.311488	-0.173194	-0.136397	0.813211	2.0331	0.112709	-0.333546	-0.0705943	0.841152	2.01602
1.38	-0.0141905	0.0148358	-0.12264	1.27413	1.1496	-0.207678	0.295121	0.0761938	-0.0733842	0.0183127	0.0906451	0.144869	-0.018918	-0.271284	0.0637543	-0.284411	0.0160819	0.0594282	0.28638	-0.0547149	-0.440031	-0.339015	-0.0521751	-0.311255	-0.174446	-0.141704	0.81539	2.03407	0.107777	-0.32883	-0.0661294	0.832797	2.0185
1.39	-0.0139864	0.0146681	-0.118753	1.28493	1.14803	-0.208429	0.294263	0.0774687	-0.0719286	0.0221389	0.0905507	0.145476	-0.0189385	-0.281864	0.0641045	-0.281748	0.015898	0.0614834	0.291515	-0.0547084	-0.438836	-0.328477	-0.0495444	-0.311145	-0.175937	-0.147011	0.817467	2.03543	0.102342	-0.323903	-0.061955	0.824142	2.02095
1.4	-0.0137808	0.0141908	-0.113463	1.29596	1.1465	-0.209306	0.293414	0.0781647	-0.0703197	0.0294127	0.0881601	0.141736	-0.018959	-0.291978	0.0634329	-0.278242	0.0166111	0.0634814	0.297226	-0.054702	-0.437654	-0.316766	-0.0480235	-0.311076	-0.177612	-0.152332	0.819306	2.03714	0.0964512	-0.318818	-0.0580494	0.815174	2.02336
1.41	-0.0135922	0.0132857	-0.106838	1.30717	1.14505	-0.210297	0.292737	0.078449	-0.0688722	0.0398204	0.0830706	0.133798	-0.0189795	-0.301226	0.0614638	-0.274244	0.0188368	0.0654354	0.303688	-0.0546955	-0.436493	-0.303853	-0.0475317	-0.310944	-0.179411	-0.157709	0.820773	2.03913	0.09016	-0.313608	-0.054415	0.80589	2.02574
1.42	-0.0134308	0.0118567	-0.0991171	1.31851	1.14369	-0.211376	0.292391	0.0785168	-0.0678723	0.0530979	0.0752483	0.122103	-0.019	-0.309236	0.0579908	-0.270263	0.0232542	0.0673052	0.311034	-0.0546892	-0.435364	-0.289786	-0.0478325	-0.310641	-0.181271	-0.163209	0.821755	2.0413	0.0835147	-0.308282	-0.0510934	0.796319	2.02801
1.43	-0.0132731	0.00983041	-0.0906688	1.32994	1.14246	-0.212508	0.292509	0.0785789	-0.0675384	0.0689922	0.065115	0.107379	-0.0190205	-0.315722	0.0529025	-0.26687	0.0305143	0.0689684	0.319284	-0.0546828	-0.434261	-0.274663	-0.048573	-0.310056	-0.183128	-0.168925	0.822168	2.04353	0.0765475	-0.302818	-0.0481672	0.786532	2.03007
1.44	-0.0130753	0.00714737	-0.081919	1.34142	1.14137	-0.213657	0.293176	0.0788339	-0.0680017	0.08726	0.0535487	0.0905662	-0.0190409	-0.320499	0.0461902	-0.264545	0.0411445	0.0702059	0.328255	-0.0546765	-0.433172	-0.258626	-0.0493495	-0.309094	-0.184914	-0.174972	0.821987	2.04569	0.0692772	-0.297176	-0.0457469	0.776653	2.0318
1.45	-0.012786	0.00377372	-0.0732711	1.35293	1.14046	-0.214789	0.294399	0.0794416	-0.0692918	0.107655	0.0417655	0.0726821	-0.0190614	-0.323464	0.0379331	-0.263542	0.055483	0.0707079	0.33749	-0.0546703	-0.432106	-0.241831	-0.0497846	-0.307683	-0.18656	-0.181488	0.821252	2.04768	0.061717	-0.291309	-0.0439398	0.766848	2.03304
1.46	-0.0123564	-0.00028044	-0.0650324	1.36444	1.13974	-0.215878	0.296103	0.080499	-0.071336	0.129883	0.0311047	0.0546786	-0.0190819	-0.324551	0.0282788	-0.263802	0.0737081	0.0701047	0.346235	-0.054664	-0.431093	-0.224444	-0.0495966	-0.30579	-0.187992	-0.188629	0.820087	2.04949	0.0538817	-0.285187	-0.0428135	0.75731	2.03371
1.47	-0.0117517	-0.00494585	-0.057364	1.37593	1.13922	-0.216912	0.298116	0.0820264	-0.0739752	0.153537	0.0227677	0.0373159	-0.0191023	-0.323677	0.0174269	-0.264944	0.0959004	0.0680124	0.353499	-0.0546579	-0.430177	-0.20663	-0.0486444	-0.303431	-0.18913	-0.196547	0.818691	2.05114	0.045794	-0.278818	-0.0423595	0.748237	2.0338
1.48	-0.0109599	-0.0100874	-0.050264	1.38738	1.13893	-0.217891	0.300177	0.0839651	-0.0769968	0.178038	0.0175816	0.0210857	-0.0191228	-0.320717	0.00561663	-0.266316	0.122097	0.06408	0.358169	-0.0546517	-0.4294	-0.188558	-0.0469398	-0.300682	-0.189899	-0.205368	0.817336	2.05273	0.0374904	-0.272264	-0.0424628	0.739808	2.03342
1.49	-0.00999686	-0.0155138	-0.0435814	1.39878	1.13885	-0.218827	0.301942	0.0861886	-0.0801831	0.202632	0.0158555	0.0061949	-0.0191432	-0.315506	-0.00688132	-0.267103	0.152314	0.0580312	0.359158	-0.0546456	-0.428783	-0.170394	-0.044627	-0.297682	-0.190236	-0.215152	0.816333	2.05435	0.0290254	-0.265642	-0.042888	0.73216	2.03278
1.5	-0.00890287	-0.0210036	-0.0370543	1.41012	1.13899	-0.219742	0.303029	0.088526	-0.0833646	0.226434	0.0173683	-0.00739053	-0.0191637	-0.307869	-0.0197759	-0.266446	0.186538	0.0496977	0.35555	-0.0546395	-0.428318	-0.152305	-0.0419388	-0.294623	-0.19011	-0.225868	0.816004	2.05607	0.0204746	-0.259118	-0.0432865	0.725376	2.03215
1.51	-0.00772548	-0.0263348	-0.0303631	1.4214	1.13933	-0.220659	0.303054	0.0907927	-0.0864627	0.24854	0.0214827	-0.0198584	-0.0191841	-0.297675	-0.0327677	-0.263577	0.224687	0.0390428	0.346739	-0.0546335	-0.427968	-0.134447	-0.0391369	-0.29173	-0.189535	-0.237355	0.816632	2.05789	0.0119338	-0.252893	-0.0432308	0.719476	2.03181
